<svg preserveAspectRatio="none" width="100%" height="100%" overflow="visible" style="display: block;" viewBox="0 0 60 51" fill="none" xmlns="http://www.w3.org/2000/svg">
<g id="Vector">
<path d="M7.65306 41.9821C7.65306 42.8204 8.33834 43.5 9.18367 43.5H22.9592V51H0V0H7.65306V41.9821Z" fill="currentColor"/>
<path d="M30.2143 29.8031C30.2143 30.0369 30.3964 30.2281 30.6161 30.2281H40.5268C40.7464 30.2281 40.9286 30.0369 40.9286 29.8031V27.2531C40.9286 27.0194 40.7464 26.8281 40.5268 26.8281H30.6161C30.3964 26.8281 30.2143 27.0194 30.2143 27.2531V29.8031ZM19.7732 30.1272L30.0589 21.5741C30.2625 21.4041 30.2625 21.0906 30.0589 20.9206L19.7732 12.3728C19.7111 12.3205 19.6352 12.2869 19.5544 12.276C19.4736 12.2652 19.3914 12.2776 19.3175 12.3117C19.2436 12.3458 19.1812 12.4002 19.1376 12.4685C19.0939 12.5368 19.071 12.616 19.0714 12.6969V16.0278C19.0714 16.1553 19.125 16.2722 19.2268 16.3519L25.1089 21.25L19.2268 26.1481C19.1789 26.1879 19.1402 26.2374 19.1134 26.2933C19.0866 26.3493 19.0723 26.4103 19.0714 26.4722V29.8031C19.0714 30.1644 19.4946 30.3609 19.7732 30.1272ZM49.7143 0H10.2857C9.3375 0 8.57143 0.759687 8.57143 1.7V40.8C8.57143 41.7403 9.3375 42.5 10.2857 42.5H49.7143C50.6625 42.5 51.4286 41.7403 51.4286 40.8V1.7C51.4286 0.759687 50.6625 0 49.7143 0ZM47.5714 38.675H12.4286V3.825H47.5714V38.675Z" fill="currentColor"/>
<path d="M60 51H37.0408V43.5H49.898C50.7552 43.5 51.1838 43.5 51.5112 43.3346C51.7992 43.189 52.0334 42.9568 52.1801 42.6712C52.3469 42.3465 52.3469 41.9215 52.3469 41.0714V0H60V51Z" fill="currentColor"/>
</g>
</svg>
